Coordinates
version=1
nRows=6
nColumns=34
inDegrees=yes

Units are S.I. units (second, meters, Newtons, ...)
If the header above contains a line with 'inDegrees', this indicates whether rotational values are in degrees (yes) or radians (no).

endheader
time	pelvis_tilt	pelvis_list	pelvis_rotation	pelvis_tx	pelvis_ty	pelvis_tz	hip_flexion_r	hip_adduction_r	hip_rotation_r	knee_angle_r	ankle_angle_r	subtalar_angle_r	mtp_angle_r	hip_flexion_l	hip_adduction_l	hip_rotation_l	knee_angle_l	ankle_angle_l	subtalar_angle_l	mtp_angle_l	lumbar_extension	lumbar_bending	lumbar_rotation	arm_flex_r	arm_add_r	arm_rot_r	elbow_flex_r	pro_sup_r	arm_flex_l	arm_add_l	arm_rot_l	elbow_flex_l	pro_sup_l
      6.73333330	     -8.46328345	     -5.05790489	      0.70508948	     -0.34516304	      0.95278318	      0.18259724	     20.30785952	     -1.39905971	     -5.79632189	      2.20789731	     -5.95092960	      3.60024624	      0.00000000	      0.09727834	     -0.88110259	    -15.56878188	      3.00607789	     14.70869288	      8.34807792	      0.00000000	     -3.15294483	     13.83235726	    -17.38556403	     -7.71000400	     -0.96913462	    -49.44948447	     25.71837894	     70.77680485	    -17.70397892	    -22.50280029	    -33.91367497	     75.82680482	     77.65645465
      6.75000000	     -8.76162400	     -5.04750087	      1.16009810	     -0.33939374	      0.95317855	      0.18354204	     20.58139012	     -1.43491427	     -5.98773333	      2.54043024	     -5.90661975	      3.41989645	      0.00000000	      0.15881431	     -0.98007600	    -15.30120433	      3.22984829	     14.87096088	      8.11523330	      0.00000000	     -3.18591402	     14.38450463	    -17.53106377	     -7.21573880	     -1.04225736	    -49.12758074	     25.62917465	     70.87210891	    -17.58606815	    -22.24666417	    -33.20527388	     75.58094207	     77.37826791
      6.76666670	     -9.24633406	     -4.95972089	      1.68579267	     -0.33221530	      0.95236371	      0.18450527	     20.87670753	     -1.59542589	     -6.19578782	      2.86925213	     -5.75839789	      3.51503353	      0.00000000	      0.50907200	     -1.02708092	    -14.66252397	      3.62903850	     15.00791032	      7.64180725	      0.00000000	     -2.78148140	     14.81069502	    -17.69031157	     -6.84570907	     -1.20682479	    -47.95105463	     25.22659949	     71.23686510	    -17.27061464	    -22.31402730	    -31.59014422	     74.36134975	     76.54642101
      6.78333330	     -9.50549315	     -4.91279897	      1.97079217	     -0.32342658	      0.95049423	      0.18582504	     20.95298853	     -1.61981923	     -6.17895586	      3.53963412	     -5.38583557	      3.36457923	      0.00000000	      0.47671579	     -1.13958078	    -14.58067568	      3.87868043	     15.04213205	      7.68587450	      0.00000000	     -3.00955128	     15.29974522	    -17.60285632	     -6.45723345	     -1.32674463	    -47.76793154	     25.31886657	     71.28812185	    -17.23046301	    -21.83973976	    -31.21867846	     74.18337945	     76.45231630
      6.80000000	    -10.15837646	     -4.84513548	      2.36979803	     -0.31436358	      0.94843962	      0.18721654	     21.33986244	     -1.73533161	     -6.32809089	      4.31626334	     -4.49275914	      3.82912453	      0.00000000	      0.94705072	     -1.26203704	    -14.45901526	      4.28100916	     15.36761542	      7.90003463	      0.00000000	     -2.49506864	     15.82639571	    -17.26147965	     -6.98547734	     -1.82080549	    -45.52510680	     25.23497039	     71.99794233	    -16.48307659	    -21.97012926	    -29.19960231	     72.08831072	     74.87787290
      6.81666670	    -10.51178421	     -4.73070501	      2.59597977	     -0.30673991	      0.94682746	      0.18901954	     21.34154430	     -1.79259657	     -5.93358109	      4.97598565	     -3.75142415	      3.77471625	      0.00000000	      0.90126486	     -1.29904631	    -14.34176413	      4.28660565	     15.68979010	      8.00051144	      0.00000000	     -2.64469511	     16.28440957	    -17.42712625	     -6.78017263	     -1.98273625	    -45.41782370	     25.30200443	     72.02985680	    -16.94031090	    -21.62329199	    -28.84535901	     71.43681891	     74.73308751
